#!OML:ASF I:\Actors\actors\Patient Classification 1\Patient 1\Session 1\Subject1.ASF
:FULLY-SPECIFIED
:DEGREES
390
root -0.304587 17.6295 8.49071 12.7968 -9.17636 -8.37672
lowerback 2.48409 -1.73827 0.570925
upperback -11.1577 -2.10682 2.47147
thorax -13.4338 -0.922096 2.69197
lowerneck -15.9823 1.97334 3.02426
upperneck 18.3395 1.87506 0.352972
head 8.36991 1.13235 -0.159483
rclavicle -3.33958e-014 2.18663e-014
rhumerus 50.5705 13.6108 -71.0325
rradius 127.195
rwrist 9.77452
rhand -22.8288 -50.1765
rfingers 7.12502
rthumb 3.60843 -80.1257
lclavicle -3.33958e-014 2.18663e-014
lhumerus 55.8446 -16.2193 63.7817
lradius 47.0782
lwrist -4.50541
lhand -48.7482 -64.6647
lfingers 7.12502
lthumb -21.3872 -35.8251
rfemur -5.41125 24.5156 23.9268
rtibia 1.89754
rfoot -10.9199 -19.4525
rtoes -4.12937
lfemur 3.4957 -42.6619 -13.0685
ltibia -4.17726
lfoot -23.7842 51.2367
ltoes 13.3229
391
root -0.306684 17.6303 8.48623 12.9018 -8.85582 -8.46661
lowerback 2.65461 -1.71008 0.669895
upperback -11.1391 -2.05072 2.5024
thorax -13.5243 -0.901161 2.67018
lowerneck -15.852 1.74345 2.74294
upperneck 17.4713 1.6446 0.33093
head 8.04876 0.995187 -0.152743
rclavicle 1.85864e-014 -2.34566e-014
rhumerus 50.7706 13.2315 -72.2892
rradius 131.259
rwrist 14.1661
rhand -26.3772 -50.7058
rfingers 7.12502
rthumb 0.181433 -80.6854
lclavicle 1.85864e-014 -2.34566e-014
lhumerus 56.2096 -16.329 63.8466
lradius 47.1912
lwrist -4.5828
lhand -48.9003 -64.6266
lfingers 7.12502
lthumb -21.5333 -35.8036
rfemur -5.42995 24.7608 24.0414
rtibia 1.7849
rfoot -11.0209 -19.9245
rtoes -3.51036
lfemur 3.24453 -42.8994 -12.7211
ltibia -4.19393
lfoot -23.5841 51.2193
ltoes 13.286
392
root -0.308781 17.6283 8.47976 12.966 -8.75659 -8.58654
lowerback 2.78073 -1.62115 0.8343
upperback -11.0873 -1.91372 2.46609
thorax -13.5542 -0.85444 2.52248
lowerneck -15.7829 1.50858 2.47391
upperneck 16.7488 1.3751 0.434404
head 7.78948 0.854527 -0.108519
rclavicle 1.6201e-014 -2.3059e-014
rhumerus 50.6236 12.9958 -73.8559
rradius 134.039
rwrist 19.4921
rhand -28.7835 -51.4471
rfingers 7.12502
rthumb -2.14263 -81.416
lclavicle 1.6201e-014 -2.3059e-014
lhumerus 56.5649 -16.4694 63.7586
lradius 47.2429
lwrist -4.61379
lhand -48.9769 -64.7354
lfingers 7.12502
lthumb -21.6068 -35.9209
rfemur -5.48014 24.9633 24.1771
rtibia 1.76383
rfoot -11.0703 -20.1443
rtoes -3.1623
lfemur 3.18069 -43.1077 -12.499
ltibia -4.24
lfoot -23.7293 51.3413
ltoes 13.4447
393
root -0.31039 17.6253 8.4717 12.986 -8.84554 -8.6256
lowerback 2.85308 -1.49872 0.947515
upperback -11.0041 -1.74253 2.38539
thorax -13.5119 -0.790158 2.34529
lowerneck -15.6527 1.29173 2.10024
upperneck 16.0848 1.11423 0.763725
head 7.54005 0.733726 0.0286408
rclavicle 9.83984e-015 -1.66979e-014
rhumerus 50.2309 13.5422 -74.6436
rradius 134.571
rwrist 22.9817
rhand -33.3752 -53.1895
rfingers 7.12502
rthumb -6.57647 -83.0674
lclavicle 9.83984e-015 -1.66979e-014
lhumerus 56.852 -16.5705 63.6512
lradius 47.2904
lwrist -4.55783
lhand -48.8071 -64.4735
lfingers 7.12502
lthumb -21.4438 -35.6403
rfemur -5.57243 24.9882 24.1997
rtibia 1.83058
rfoot -11.034 -20.0668
rtoes -3.39276
lfemur 3.25515 -43.3073 -12.5163
ltibia -4.2819
lfoot -24.027 51.6101
ltoes 13.5473
394
root -0.311355 17.6244 8.46352 12.977 -9.16152 -8.56262
lowerback 2.87194 -1.33801 0.939838
upperback -10.9251 -1.53539 2.28091
thorax -13.4374 -0.697889 2.20226
lowerneck -15.5162 1.13524 1.82163
upperneck 15.5856 0.915614 1.08329
head 7.34803 0.648218 0.154406
rclavicle -1.95803e-014 2.54444e-014
rhumerus 49.5498 14.6321 -74.8211
rradius 132.45
rwrist 24.3318
rhand -36.0895 -56.6453
rfingers 7.12502
rthumb -9.19612 -86.4248
lclavicle -1.95803e-014 2.54444e-014
lhumerus 57.0076 -16.6329 63.5276
lradius 47.3409
lwrist -4.43052
lhand -48.6051 -64.2477
lfingers 7.12502
lthumb -21.2497 -35.3925
rfemur -5.72566 24.8987 24.059
rtibia 1.98498
rfoot -10.938 -19.686
rtoes -3.69857
lfemur 3.46693 -43.5965 -12.8217
ltibia -4.28239
lfoot -24.543 52.1267
ltoes 13.7736
395
root -0.310166 17.6246 8.45659 12.9455 -9.64735 -8.50688
lowerback 2.85403 -1.14443 0.969441
upperback -10.857 -1.28131 2.17283
thorax -13.3546 -0.587436 2.0274
lowerneck -15.371 1.07671 1.68291
upperneck 15.2519 0.839211 1.28505
head 7.212 0.61925 0.232435
rclavicle -3.77691e-015 -1.03368e-014
rhumerus 48.7523 15.9608 -74.6559
rradius 127.605
rwrist 23.3401
rhand -36.0161 -56.2571
rfingers 7.12502
rthumb -9.12531 -86.0397
lclavicle -3.77691e-015 -1.03368e-014
lhumerus 57.0496 -16.678 63.3772
lradius 47.3394
lwrist -4.35139
lhand -48.7591 -64.3354
lfingers 7.12502
lthumb -21.3977 -35.497
rfemur -5.86692 24.8331 23.902
rtibia 2.15223
rfoot -10.8319 -19.1314
rtoes -3.72396
lfemur 3.86555 -44.0231 -13.2988
ltibia -4.28902
lfoot -25.6496 52.8165
ltoes 14.7959
396
root -0.306584 17.6249 8.45126 12.917 -10.224 -8.47661
lowerback 2.75213 -0.932266 1.07659
upperback -10.7735 -0.996194 2.07071
thorax -13.2016 -0.470301 1.8091
lowerneck -15.2953 1.09962 1.64
upperneck 15.0893 0.867107 1.38237
head 7.1453 0.637606 0.272882
rclavicle -1.15295e-014 -1.35174e-014
rhumerus 48.2694 17.4189 -73.882
rradius 120.112
rwrist 20.0177
rhand -33.319 -52.2307
rfingers 7.12502
rthumb -6.52219 -82.1103
lclavicle -1.15295e-014 -1.35174e-014
lhumerus 57.0703 -16.6716 63.2463
lradius 47.2883
lwrist -4.31903
lhand -48.9021 -64.1402
lfingers 7.12502
lthumb -21.535 -35.3174
rfemur -6.00905 24.7525 23.7533
rtibia 2.31077
rfoot -10.717 -18.4544
rtoes -3.69042
lfemur 4.33326 -44.3916 -13.8041
ltibia -4.33922
lfoot -27.1633 53.448
ltoes 16.2999
397
root -0.303422 17.6247 8.44661 12.8546 -10.8535 -8.39857
lowerback 2.59123 -0.724614 1.12604
upperback -10.6712 -0.725486 1.96392
thorax -12.9862 -0.354159 1.61954
lowerneck -15.33 1.20244 1.8129
upperneck 15.1824 0.983982 1.27914
head 7.18343 0.695099 0.224064
rclavicle 9.0447e-015 -3.97569e-015
rhumerus 48.4771 18.5302 -72.8703
rradius 110.233
rwrist 15.1612
rhand -28.7632 -47.4086
rfingers 7.12502
rthumb -2.123 -77.3778
lclavicle 9.0447e-015 -3.97569e-015
lhumerus 57.0633 -16.6121 63.0919
lradius 47.2047
lwrist -4.2495
lhand -48.888 -63.8406
lfingers 7.12502
lthumb -21.5215 -35.0163
rfemur -6.1401 24.7098 23.5537
rtibia 2.48524
rfoot -10.5921 -17.7997
rtoes -3.71264
lfemur 4.75426 -44.4842 -14.3227
ltibia -4.36691
lfoot -28.4714 53.8739
ltoes 17.4213
398
root -0.299866 17.6223 8.44294 12.7114 -11.4622 -8.29305
lowerback 2.43168 -0.589296 1.14836
upperback -10.587 -0.55187 1.89949
thorax -12.7903 -0.278576 1.50728
lowerneck -15.0143 1.37954 2.01396
upperneck 15.0473 1.22758 1.07087
head 7.08812 0.802524 0.146176
rclavicle -3.49861e-014 2.14687e-014
rhumerus 49.2487 19.5561 -71.7158
rradius 98.7645
rwrist 11.6645
rhand -20.915 -46.6985
rfingers 7.12502
rthumb 5.45639 -76.6082
lclavicle -3.49861e-014 2.14687e-014
lhumerus 56.8884 -16.4425 62.89
lradius 47.0433
lwrist -4.04726
lhand -48.9309 -63.9267
lfingers 7.12502
lthumb -21.5626 -35.1071
rfemur -6.17135 24.6408 23.3719
rtibia 2.6542
rfoot -10.4617 -17.1942
rtoes -4.09968
lfemur 5.17674 -44.29 -14.8593
ltibia -4.35798
lfoot -29.2424 54.0676
ltoes 17.9487
399
root -0.295916 17.6187 8.44092 12.5019 -12.045 -8.17017
lowerback 2.31977 -0.505478 1.15635
upperback -10.5326 -0.446401 1.85567
thorax -12.658 -0.232546 1.43749
lowerneck -14.6803 1.54715 2.2944
upperneck 15.1433 1.45006 0.800372
head 7.06695 0.900971 0.0335458
rclavicle -2.23633e-014 -7.95139e-015
rhumerus 51.2317 20.2548 -70.3802
rradius 85.9579
rwrist 6.49395
rhand -8.20246 -47.0428
rfingers 7.12502
rthumb 17.714 -76.2559
lclavicle -2.23633e-014 -7.95139e-015
lhumerus 56.6078 -16.2272 62.7629
lradius 46.7546
lwrist -3.76397
lhand -48.9969 -64.0571
lfingers 7.12502
lthumb -21.626 -35.2448
rfemur -6.09193 24.4921 23.2212
rtibia 2.78495
rfoot -10.3193 -16.5634
rtoes -4.86436
lfemur 5.76122 -44.1556 -15.5205
ltibia -4.40698
lfoot -29.9052 54.2908
ltoes 18.3574
400
root -0.294168 17.618 8.43901 12.3039 -12.5566 -8.05978
lowerback 2.29991 -0.411213 1.20092
upperback -10.517 -0.331032 1.70923
thorax -12.6295 -0.191457 1.23726
lowerneck -14.7103 1.5788 2.77877
upperneck 15.6683 1.43617 0.478054
head 7.24994 0.897454 -0.149394
rclavicle 2.00773e-014 -2.8625e-014
rhumerus 54.3261 21.2392 -66.5017
rradius 74.313
rwrist -10.2731
rhand -5.77511 -51.7439
rfingers 7.12502
rthumb 20.0485 -80.7295
lclavicle 2.00773e-014 -2.8625e-014
lhumerus 56.4451 -16.2061 62.7141
lradius 46.3486
lwrist -3.5199
lhand -48.9598 -63.8588
lfingers 7.12502
lthumb -21.5904 -35.0424
rfemur -5.98035 24.4328 23.1141
rtibia 2.87275
rfoot -10.1752 -16.1004
rtoes -5.58868
lfemur 6.31789 -44.1221 -16.1308
ltibia -4.45617
lfoot -30.552 54.5366
ltoes 18.8187
401
root -0.294564 17.623 8.43672 12.2155 -12.8389 -8.10151
lowerback 2.29511 -0.338078 1.47536
upperback -10.5089 -0.232504 1.47099
thorax -12.6202 -0.18739 0.811612
lowerneck -14.8987 1.48606 2.96707
upperneck 16.1152 1.2018 0.755026
head 7.42707 0.827023 -0.111524
rclavicle -5.66536e-015 8.74653e-015
rhumerus 56.9105 22.0851 -62.2231
rradius 67.688
rwrist -32.8413
rhand -21.6465 -56.5916
rfingers 7.12502
rthumb 4.75015 -86.5183
lclavicle -5.66536e-015 8.74653e-015
lhumerus 56.5047 -16.4006 62.5531
lradius 46.0268
lwrist -3.19273
lhand -48.8483 -63.1965
lfingers 7.12502
lthumb -21.4833 -34.3678
rfemur -5.91937 24.4936 23.193
rtibia 2.93024
rfoot -10.028 -15.943
rtoes -5.95443
lfemur 6.43211 -43.6855 -16.1661
ltibia -4.44893
lfoot -30.2424 54.4083
ltoes 18.5772
